<?xml version='1.0' encoding='UTF-8' standalone='no'?>
<!-- Generator: Adobe Illustrator 23.0.2, SVG Export Plug-In . SVG Version: 6.00 Build 0)  -->
<svg xmlns="http://www.w3.org/2000/svg" id="Layer_1" xmlns:xml="http://www.w3.org/XML/1998/namespace" y="0px" xml:space="preserve" x="0px" version="1.1"  height="0.4539166093in" gorn="0" viewBox="0 0 107.329778 32.68202798" width="1.490693212in">
    <defs id="breadboard" />
    <desc id="desc1155" >
        <referenceFile >SSD1306.svg</referenceFile>
    </desc>
    <metadata id="metadata1157" >
        <sfw >
            <slices />
            <sliceSourceBounds y="-32.9778595" x="0.1699951" bottomLeftOrigin="true"  height="32.6820259" width="107.3300171"/>
        </sfw>
    </metadata>
    <g transform="translate(-0.1701146845,-0.2958333)" >
        <g >
            <polygon id="polygon1159" points="7.3985276,3.7139909 5.8353176,2.1507809 1.7627476,2.1507809 0.1985277,3.7139909 0.1985277,7.7865605 1.7627476,9.3507805 5.8353176,9.3507805 7.3985276,7.7865605 "  fill="#414141" gorn="0.3.0.0"/>
        </g>
    </g>
    <g transform="translate(-0.1701146845,-0.2958333)" >
        <g >
            <polygon id="polygon1175" points="7.3985276,10.9139709 5.8353176,9.3507805 1.7627476,9.3507805 0.1985277,10.9139709 0.1985277,14.9865808 1.7627476,16.5507813 5.8353176,16.5507813 7.3985276,14.9865808 "  fill="#414141" gorn="0.4.0.0"/>
        </g>
    </g>
    <g transform="translate(-0.1701146845,-0.2958333)" >
        <g >
            <polygon id="polygon1191" points="7.3985276,18.1139812 5.8353176,16.5507813 1.7627476,16.5507813 0.1985277,18.1139812 0.1985277,22.1865826 1.7627476,23.750782 5.8353176,23.750782 7.3985276,22.1865826 "  fill="#414141" gorn="0.5.0.0"/>
        </g>
    </g>
    <g transform="translate(-0.1701146845,-0.2958333)" >
        <g >
            <polygon id="polygon1207" points="7.3985276,25.313982 5.8353176,23.750782 1.7627476,23.750782 0.1985277,25.313982 0.1985277,29.3865814 1.7627476,30.9507809 5.8353176,30.9507809 7.3985276,29.3865814 "  fill="#414141" gorn="0.6.0.0"/>
        </g>
    </g>
    <path id="path1226" d="M -1.195844556e-4,0 V 32.539978 H 107.3298975 V 0 Z M 4.779909916,28.2100223 h -2.3000491 v -2.3000488 h 2.3000491 z M 2.479860816,4.3099974 h 2.3000491 v 2.2999878 h -2.3000491 z m 2.3000491,16.7000127 h -2.3000491 v -2.2999878 h 2.3000491 z m 0,-7.2000123 h -2.3000491 V 11.51001 h 2.3000491 z"  fill="#2656a6" gorn="0.7"/>
    <line id="line1234" y1="0.004166712053" y2="32.68164444" stroke-width="1" stroke="#ffffff" x2="14.09561348"  x1="14.07061386" fill="none" stroke-miterlimit="10" gorn="0.8"/>
    <line id="line1238" y1="6.506644726" y2="6.506644726" stroke-width="1" stroke="#ffffff" x2="77.50489044"  x1="107.3048859" fill="none" stroke-miterlimit="10" gorn="0.9"/>
    <path id="path1244" fill-opacity="0.5294117928" d="M 103.7860434,7.663681291 V 28.59110661 h -6.71997065 c -0.4899902,0 -0.8800049,-1.99043256 -0.8800049,-4.49147994 V 7.663681797 Z" stroke-width="0.999999"  fill="#fbb03b" gorn="0.10"/>
    <path id="path2150" fill-opacity="1" d="M 88.92447882,4.103043597 V 30.70577534 h 8.23916625 v -3.84028935 h 7.05216763 V 9.269978369 H 96.53523407 V 4.103043597 Z" style="fill-rule:evenodd;stroke-linecap:butt;stroke-linejoin:miter;" stroke-width="0.6" stroke="none"  fill="#2e363c" stroke-opacity="1" gorn="0.11"/>
    <rect id="rect1248" y="1.723964691" x="15.3399353" stroke-width="1"  height="29.51717377" fill="#0b0c15" gorn="0.12" width="73.8666687"/>
    <rect id="rect2083" y="3.399727345" x="16.03816986" fill-opacity="1" stroke-width="1"  height="26.16564941" fill="#26192f" gorn="0.13" width="72.47019958"/>
    <g transform="rotate(-90)" >
        <g >
            <g id="text3192" style="line-height:125%;font-family:Droid Sans;-inkscape-font-specification:'Droid Sans, Normal';font-variant-ligatures:none;text-align:center;letter-spacing:0px;word-spacing:0px;text-anchor:middle;stop-color:#000000" stroke-width="0.599999" aria-label="GND"  fill="#ffffff" gorn="0.14.0.0" font-size="2.4">
                <path id="path3321" d="m -28.79273224,8.316626549 h 0.36328125 q 0.0629883,0 0.10107422,0.03515625 0.0395508,0.03515625 0.0395508,0.09082031 0,0.05419922 -0.0395508,0.09082031 -0.0395508,0.03515625 -0.10107422,0.03515625 h -0.36035156 q -0.0249023,0 -0.0527344,0.01318359 -0.027832,0.01171875 -0.0380859,0.02636719 l -0.32373047,0.418945313 q -0.0439453,0.05859375 -0.0600586,0.09814453 -0.0146484,0.03808594 -0.0146484,0.08203125 v 0.675292969 q 0,0.05126953 0.0380859,0.08935547 0.0380859,0.03662109 0.0878906,0.03662109 h 0.48339844 q 0.0498047,0 0.0878906,-0.03662109 0.0380859,-0.03808594 0.0380859,-0.08935547 V 9.627661705 h -0.22851563 q -0.0644531,0 -0.10253906,-0.03369141 -0.0380859,-0.03515625 -0.0380859,-0.09228516 0,-0.05566406 0.0395508,-0.09082031 0.0395508,-0.03515625 0.10107422,-0.03515625 h 0.48339844 v 0.506835938 q 0,0.155273442 -0.11132812,0.266601562 -0.11132813,0.11132813 -0.26660157,0.11132813 h -0.48339843 q -0.15820313,0 -0.26953125,-0.11132813 -0.11132813,-0.10986328 -0.11132813,-0.266601562 V 9.207251549 q 0,-0.08642578 0.0292969,-0.1640625 0.0292969,-0.07763672 0.11425781,-0.193359375 l 0.2915039,-0.38671875 q 0.0483398,-0.06298828 0.13330079,-0.104003906 0.0849609,-0.04248047 0.16992187,-0.04248047 z"  gorn="0.14.0.0.0"/>
                <path id="path3323" d="m -27.6765213,8.316626549 h 0.33251953 l 0.65771484,1.497070312 V 8.457251549 q 0,-0.06445312 0.0336914,-0.102539063 0.0351563,-0.03808594 0.0922852,-0.03808594 0.0541992,0 0.0893555,0.03955078 0.0366211,0.03955078 0.0366211,0.101074219 v 1.803222661 h -0.33398438 l -0.65625,-1.491210942 v 1.350585942 q 0,0.0629883 -0.0351563,0.10107421 -0.0351563,0.0395508 -0.0908203,0.0395508 -0.0556641,0 -0.0908203,-0.0395508 -0.0351563,-0.0395508 -0.0351563,-0.10107421 z"  gorn="0.14.0.0.1"/>
                <path id="path3325" d="m -25.23755646,8.568579674 h -0.0834961 v 1.439941406 h 0.0834961 q 0.0380859,0 0.0703125,-0.02050781 0.0322266,-0.02050781 0.0498047,-0.05712891 l 0.2578125,-0.522949218 q 0.0131836,-0.02636719 0.019043,-0.05566406 0.005859,-0.02929688 0.005859,-0.06445312 0,-0.03369141 -0.005859,-0.06298828 -0.005859,-0.02929688 -0.019043,-0.05566406 l -0.2578125,-0.520019531 q -0.019043,-0.03662109 -0.0512695,-0.05859375 -0.0322266,-0.02197266 -0.0688477,-0.02197266 z m 0,-0.251953125 q 0.11865235,0 0.20361328,0.05712891 0.0849609,0.05712891 0.14794922,0.180175781 l 0.26074219,0.518554688 q 0.0219727,0.04541016 0.0336914,0.09960937 0.0117188,0.05273437 0.0117188,0.115722656 0,0.06298828 -0.0117188,0.1171875 -0.0117188,0.05419922 -0.0336914,0.09960937 l -0.26074219,0.51855469 q -0.0600586,0.12158203 -0.14648437,0.17871094 -0.0849609,0.0585938 -0.20507813,0.0585938 h -0.44384765 q -0.0629883,0 -0.10253907,-0.0351563 -0.0380859,-0.0351563 -0.0380859,-0.0908203 0,-0.0556641 0.0395508,-0.0908203 0.0395508,-0.0351563 0.10107422,-0.0351563 h 0.10839843 V 8.568579674 h -0.10839843 q -0.0629883,0 -0.10253907,-0.03515625 -0.0380859,-0.03515625 -0.0380859,-0.09082031 0,-0.05566406 0.0395508,-0.09082031 0.0395508,-0.03515625 0.10107422,-0.03515625 z"  gorn="0.14.0.0.2"/>
            </g>
        </g>
    </g>
    <g transform="rotate(-90)" >
        <g >
            <g id="text3246" style="line-height:125%;font-family:Droid Sans;-inkscape-font-specification:'Droid Sans, Normal';font-variant-ligatures:none;text-align:center;letter-spacing:0px;word-spacing:0px;text-anchor:middle;stop-color:#000000" stroke-width="0.599999" aria-label="VCC"  fill="#ffffff" gorn="0.15.0.0" font-size="2.4">
                <path id="path3328" d="m -22.10360718,8.457251549 v 0.380859375 l 0.36914063,0.969726562 0.36914062,-0.969726562 V 8.457251549 q 0,-0.06152344 0.0351563,-0.101074219 0.0351563,-0.03955078 0.0908203,-0.03955078 0.0556641,0 0.0908203,0.03955078 0.0351563,0.03808594 0.0351563,0.101074219 v 0.429199219 l -0.49511719,1.265625002 q -0.0234375,0.0629883 -0.0527344,0.0849609 -0.027832,0.0234375 -0.0732422,0.0234375 -0.046875,0 -0.0776367,-0.0249023 -0.0307617,-0.0249023 -0.0512695,-0.0834961 L -22.3555603,8.886450768 V 8.457251549 q 0,-0.06445312 0.0336914,-0.102539063 0.0351563,-0.03808594 0.0922852,-0.03808594 0.0541992,0 0.0893555,0.03955078 0.0366211,0.03955078 0.0366211,0.101074219 z"  gorn="0.15.0.0.0"/>
                <path id="path3330" d="m -19.84481812,10.26047421 q -0.1171875,0 -0.20361328,-0.0571289 -0.0849609,-0.0571289 -0.14648437,-0.18017578 l -0.26074219,-0.51855469 q -0.0234375,-0.04541016 -0.0351563,-0.09814453 -0.0102539,-0.05273437 -0.0102539,-0.114257813 0,-0.06445312 0.0102539,-0.120117187 0.0117188,-0.05566406 0.0351563,-0.09960937 l 0.26074219,-0.518554688 q 0.0585938,-0.121582031 0.14501953,-0.178710937 0.0864258,-0.05859375 0.20507812,-0.05859375 h 0.4453125 q 0.0629883,0 0.10107422,0.03515625 0.0395508,0.03515625 0.0395508,0.09082031 0,0.05419922 -0.0395508,0.09082031 -0.0395508,0.03515625 -0.10107422,0.03515625 h -0.4453125 q -0.0366211,0 -0.0688477,0.02050781 -0.0322266,0.02050781 -0.0512695,0.05712891 l -0.2578125,0.522949218 q -0.0117188,0.02636719 -0.0175781,0.05566406 -0.005859,0.02929688 -0.005859,0.06298828 0,0.03515625 0.005859,0.06445312 0.005859,0.02929688 0.0175781,0.05566406 l 0.2578125,0.520019531 q 0.019043,0.03662109 0.0512695,0.05859375 0.0322266,0.02197266 0.0688477,0.02197266 h 0.4453125 q 0.0629883,0 0.10107422,0.0351563 0.0395508,0.0351563 0.0395508,0.0908203 0,0.0556641 -0.0395508,0.0908203 -0.0395508,0.0351563 -0.10107422,0.0351563 z"  gorn="0.15.0.0.1"/>
                <path id="path3332" d="m -17.99032593,10.26047421 q -0.1171875,0 -0.20361328,-0.0571289 -0.0849609,-0.0571289 -0.14648437,-0.18017578 l -0.26074219,-0.51855469 q -0.0234375,-0.04541016 -0.0351563,-0.09814453 -0.0102539,-0.05273437 -0.0102539,-0.114257813 0,-0.06445312 0.0102539,-0.120117187 0.0117188,-0.05566406 0.0351563,-0.09960937 l 0.26074219,-0.518554688 q 0.0585938,-0.121582031 0.14501953,-0.178710937 0.0864258,-0.05859375 0.20507812,-0.05859375 h 0.4453125 q 0.0629883,0 0.10107422,0.03515625 0.0395508,0.03515625 0.0395508,0.09082031 0,0.05419922 -0.0395508,0.09082031 -0.0395508,0.03515625 -0.10107422,0.03515625 h -0.4453125 q -0.0366211,0 -0.0688476,0.02050781 -0.0322266,0.02050781 -0.0512695,0.05712891 l -0.2578125,0.522949218 q -0.0117188,0.02636719 -0.0175781,0.05566406 -0.005859,0.02929688 -0.005859,0.06298828 0,0.03515625 0.005859,0.06445312 0.005859,0.02929688 0.0175781,0.05566406 l 0.2578125,0.520019531 q 0.019043,0.03662109 0.0512695,0.05859375 0.0322266,0.02197266 0.0688476,0.02197266 h 0.4453125 q 0.0629883,0 0.10107422,0.0351563 0.0395508,0.0351563 0.0395508,0.0908203 0,0.0556641 -0.0395508,0.0908203 -0.0395508,0.0351563 -0.10107422,0.0351563 z"  gorn="0.15.0.0.2"/>
            </g>
        </g>
    </g>
    <g transform="rotate(-90)" >
        <g >
            <g id="text3250" style="line-height:125%;font-family:Droid Sans;-inkscape-font-specification:'Droid Sans, Normal';font-variant-ligatures:none;text-align:center;letter-spacing:0px;word-spacing:0px;text-anchor:middle;stop-color:#000000" stroke-width="0.599999" aria-label="SCL"  fill="#ffffff" gorn="0.16.0.0" font-size="2.4">
                <path id="path3335" d="m -14.84933472,8.316626549 h 0.62109375 q 0.13623047,0 0.23730469,0.09960937 0.10253906,0.09814453 0.10253906,0.224121094 0,0.06298828 -0.0351563,0.102539062 -0.0351563,0.03808594 -0.0908203,0.03808594 -0.0541992,0 -0.0834961,-0.02783203 -0.0292969,-0.02929688 -0.0483398,-0.121582031 -0.004395,-0.0234375 -0.0292969,-0.04248047 -0.0249024,-0.02050781 -0.0527344,-0.02050781 h -0.62109375 q -0.0102539,0 -0.0205078,0.01025391 -0.008789,0.0087891 -0.008789,0.01904297 0,0.0043945 0.001465,0.01025391 0.00293,0.0043945 0.007324,0.01171875 l 0.90380859,1.16015625 q 0.0395508,0.05273437 0.0585938,0.101074219 0.019043,0.04833984 0.019043,0.09814453 0,0.115722655 -0.0834961,0.197753905 -0.0820313,0.0834961 -0.19921875,0.0834961 h -0.62109375 q -0.13476563,0 -0.23730469,-0.0996094 -0.10107422,-0.0996094 -0.10107422,-0.224121094 0,-0.06298828 0.0351563,-0.101074218 0.0351563,-0.03955078 0.0908203,-0.03955078 0.0527344,0 0.0820313,0.02929688 0.0292969,0.02783203 0.0498047,0.120117188 0.004395,0.0234375 0.0292969,0.04394531 0.0249023,0.01904297 0.0512695,0.01904297 h 0.62109375 q 0.0131836,0 0.0219727,-0.0087891 0.008789,-0.0087891 0.008789,-0.02050781 0,-0.0043945 -0.00293,-0.0087891 -0.001465,-0.0058594 -0.005859,-0.01318359 l -0.9038086,-1.16015625 q -0.0395508,-0.05273437 -0.0585938,-0.101074219 -0.019043,-0.04833984 -0.019043,-0.09814453 0,-0.115722656 0.0820313,-0.197753906 0.0834961,-0.08349609 0.19921875,-0.08349609 z"  gorn="0.16.0.0.0"/>
                <path id="path3337" d="m -12.61984253,10.26047421 q -0.1171875,0 -0.20361328,-0.0571289 -0.0849609,-0.0571289 -0.14648438,-0.18017578 l -0.26074218,-0.51855469 q -0.0234375,-0.04541016 -0.0351563,-0.09814453 -0.0102539,-0.05273437 -0.0102539,-0.114257813 0,-0.06445312 0.0102539,-0.120117187 0.0117188,-0.05566406 0.0351563,-0.09960937 l 0.26074218,-0.518554688 q 0.0585938,-0.121582031 0.14501954,-0.178710937 0.0864258,-0.05859375 0.20507812,-0.05859375 h 0.4453125 q 0.0629883,0 0.10107422,0.03515625 0.0395508,0.03515625 0.0395508,0.09082031 0,0.05419922 -0.0395508,0.09082031 -0.0395508,0.03515625 -0.10107422,0.03515625 h -0.4453125 q -0.0366211,0 -0.0688477,0.02050781 -0.0322266,0.02050781 -0.0512695,0.05712891 l -0.2578125,0.522949218 q -0.0117188,0.02636719 -0.0175781,0.05566406 -0.005859,0.02929688 -0.005859,0.06298828 0,0.03515625 0.005859,0.06445312 0.005859,0.02929688 0.0175781,0.05566406 l 0.2578125,0.520019531 q 0.019043,0.03662109 0.0512695,0.05859375 0.0322266,0.02197266 0.0688477,0.02197266 h 0.4453125 q 0.0629883,0 0.10107422,0.0351563 0.0395508,0.0351563 0.0395508,0.0908203 0,0.0556641 -0.0395508,0.0908203 -0.0395508,0.0351563 -0.10107422,0.0351563 z"  gorn="0.16.0.0.1"/>
                <path id="path3339" d="m -11.16964722,8.457251549 v 1.551269531 h 0.84960938 q 0.0629883,0 0.10107422,0.0351563 0.0395508,0.0351563 0.0395508,0.0908203 0,0.0556641 -0.0395508,0.0908203 -0.0395508,0.0351563 -0.10107422,0.0351563 h -1.1015625 V 8.457251549 q 0,-0.06445312 0.0336914,-0.102539063 0.0351563,-0.03808594 0.0922852,-0.03808594 0.0541992,0 0.0893555,0.03955078 0.0366211,0.03955078 0.0366211,0.101074219 z"  gorn="0.16.0.0.2"/>
            </g>
        </g>
    </g>
    <g transform="rotate(-90)" >
        <g >
            <g id="text3254" style="line-height:125%;font-family:Droid Sans;-inkscape-font-specification:'Droid Sans, Normal';font-variant-ligatures:none;text-align:center;letter-spacing:0px;word-spacing:0px;text-anchor:middle;stop-color:#000000" stroke-width="0.599999" aria-label="SDA"  fill="#ffffff" gorn="0.17.0.0" font-size="2.4">
                <path id="path3342" d="m -7.65737915,8.316626549 h 0.62109375 q 0.136230468,0 0.237304687,0.09960937 0.102539063,0.09814453 0.102539063,0.224121094 0,0.06298828 -0.03515625,0.102539062 -0.03515625,0.03808594 -0.09082031,0.03808594 -0.05419922,0 -0.08349609,-0.02783203 -0.02929688,-0.02929688 -0.04833984,-0.121582031 -0.0043945,-0.0234375 -0.02929688,-0.04248047 -0.02490234,-0.02050781 -0.05273437,-0.02050781 h -0.62109375 q -0.01025391,0 -0.02050781,0.01025391 -0.0087891,0.0087891 -0.0087891,0.01904297 0,0.0043945 0.0014648,0.01025391 0.0029297,0.0043945 0.0073242,0.01171875 l 0.903808594,1.16015625 q 0.03955078,0.05273437 0.05859375,0.101074219 0.01904297,0.04833984 0.01904297,0.09814453 0,0.115722655 -0.08349609,0.197753905 -0.08203125,0.0834961 -0.19921875,0.0834961 h -0.62109375 q -0.134765625,0 -0.237304688,-0.0996094 -0.101074218,-0.0996094 -0.101074218,-0.224121094 0,-0.06298828 0.03515625,-0.101074218 0.03515625,-0.03955078 0.09082031,-0.03955078 0.05273437,0 0.08203125,0.02929688 0.02929688,0.02783203 0.04980469,0.120117188 0.0043945,0.0234375 0.02929688,0.04394531 0.02490234,0.01904297 0.05126953,0.01904297 h 0.62109375 q 0.01318359,0 0.02197266,-0.0087891 0.0087891,-0.0087891 0.0087891,-0.02050781 0,-0.0043945 -0.0029297,-0.0087891 -0.0014648,-0.0058594 -0.0058594,-0.01318359 l -0.903808594,-1.16015625 q -0.03955078,-0.05273437 -0.05859375,-0.101074219 -0.01904297,-0.04833984 -0.01904297,-0.09814453 0,-0.115722656 0.08203125,-0.197753906 0.08349609,-0.08349609 0.19921875,-0.08349609 z"  gorn="0.17.0.0.0"/>
                <path id="path3344" d="M -5.499664307,8.568579674 H -5.5831604 v 1.439941406 h 0.08349609 q 0.03808594,0 0.0703125,-0.02050781 0.03222656,-0.02050781 0.04980469,-0.05712891 l 0.2578125,-0.522949218 q 0.01318359,-0.02636719 0.01904297,-0.05566406 0.0058594,-0.02929688 0.0058594,-0.06445312 0,-0.03369141 -0.0058594,-0.06298828 -0.0058594,-0.02929688 -0.01904297,-0.05566406 l -0.2578125,-0.520019531 q -0.01904297,-0.03662109 -0.05126953,-0.05859375 -0.03222656,-0.02197266 -0.06884766,-0.02197266 z m 0,-0.251953125 q 0.118652344,0 0.203613282,0.05712891 0.08496094,0.05712891 0.147949218,0.180175781 l 0.260742188,0.518554688 q 0.02197266,0.04541016 0.03369141,0.09960937 0.01171875,0.05273437 0.01171875,0.115722656 0,0.06298828 -0.01171875,0.1171875 -0.01171875,0.05419922 -0.03369141,0.09960937 l -0.260742188,0.51855469 q -0.06005859,0.12158203 -0.146484375,0.17871094 -0.08496094,0.0585938 -0.205078125,0.0585938 h -0.443847656 q -0.06298828,0 -0.102539062,-0.0351563 -0.03808594,-0.0351563 -0.03808594,-0.0908203 0,-0.0556641 0.03955078,-0.0908203 0.03955078,-0.0351563 0.101074219,-0.0351563 h 0.108398438 V 8.568579674 h -0.108398438 q -0.06298828,0 -0.102539062,-0.03515625 -0.03808594,-0.03515625 -0.03808594,-0.09082031 0,-0.05566406 0.03955078,-0.09082031 0.03955078,-0.03515625 0.101074219,-0.03515625 z"  gorn="0.17.0.0.1"/>
                <path id="path3346" d="m -3.608551025,8.892310143 -0.203613282,0.692871093 h 0.404296875 z M -3.4737854,8.457251549 -2.999176025,10.08762264 q 0.0043945,0.0131836 0.0058594,0.0263672 0.0029297,0.0131836 0.0029297,0.0234375 0,0.0512695 -0.03662109,0.0864258 -0.03662109,0.0366211 -0.08642578,0.0366211 -0.04394531,0 -0.07910156,-0.0292969 -0.03369141,-0.027832 -0.046875,-0.074707 l -0.09375,-0.319335939 h -0.549316407 l -0.09521484,0.317871099 q -0.01757813,0.0541992 -0.04980469,0.0791016 -0.03076172,0.0263672 -0.07910156,0.0263672 -0.04833984,0 -0.08496094,-0.0366211 -0.03515625,-0.0351563 -0.03515625,-0.0834961 0,-0.0219727 0.0014648,-0.0322266 0.0014648,-0.0117188 0.0043945,-0.0219727 l 0.474609375,-1.628906251 q 0.02197266,-0.07910156 0.05273437,-0.109863281 0.03222656,-0.03076172 0.08496094,-0.03076172 0.05126953,0 0.08203125,0.02929688 0.03076172,0.02929688 0.05273437,0.111328125 z"  gorn="0.17.0.0.2"/>
            </g>
        </g>
    </g>
    <g id="text3315" style="line-height:125%;font-family:Droid Sans;-inkscape-font-specification:'Droid Sans, Normal';font-variant-ligatures:none;letter-spacing:0px;word-spacing:0px;stop-color:#000000" stroke-width="0.599999" aria-label="0.91' OLEDI2C128 x 32 Pixels"  fill="#ffffff" gorn="0.18" font-size="2.4">
        <path id="path3349" d="m 25.22831154,12.01258087 v 1.43994141 h 0.73828125 v -1.43994141 z m 0.0263672,-0.25195312 h 0.68408203 q 0.13476562,0 0.20654297,0.0717773 0.0732422,0.0717773 0.0732422,0.20654297 v 1.38720703 q 0,0.13476563 -0.0732422,0.20654297 -0.0717773,0.0717773 -0.20654297,0.0717773 h -0.68408203 q -0.13476563,0 -0.20654297,-0.0717773 -0.0717774,-0.0717773 -0.0717774,-0.20654297 v -1.38720703 q 0,-0.13476563 0.0717774,-0.20654297 0.0717773,-0.0717773 0.20654297,-0.0717773 z"  gorn="0.18.0"/>
        <path id="path3351" d="m 27.32889748,12.92517853 h 0.24609375 q 0.0556641,0 0.0908203,0.0380859 0.0351563,0.0380859 0.0351563,0.0996094 V 13.248909 q 0,0.0644531 -0.0351563,0.10253906 -0.0336914,0.0380859 -0.0908203,0.0380859 h -0.24609375 q -0.0556641,0 -0.0908203,-0.0395508 -0.0351563,-0.0395508 -0.0351563,-0.10107422 v -0.18603516 q 0,-0.0644531 0.0336914,-0.10107422 0.0351563,-0.0366211 0.0922852,-0.0366211 z"  gorn="0.18.1"/>
        <path id="path3353" d="m 28.93729591,12.01258087 v 0.38085938 h 0.73828125 v -0.38085938 z m 0.0263672,-0.25195312 h 0.68408203 q 0.13476563,0 0.20654297,0.0732422 0.0732422,0.0732422 0.0732422,0.20800782 v 1.52490234 q 0,0.0629883 -0.0351563,0.0996094 -0.0351563,0.0380859 -0.0908203,0.0380859 H 29.6902256 q -0.0629883,0 -0.10253906,-0.0351563 -0.0380859,-0.0351563 -0.0380859,-0.0908203 0,-0.0498047 0.0336914,-0.0834961 0.0336914,-0.0351563 0.0922851,-0.0439453 V 12.64832306 H 28.9636631 q -0.13330078,0 -0.20654297,-0.0732422 -0.0717773,-0.0732422 -0.0717773,-0.20800781 v -0.32519531 q 0,-0.13476563 0.0717773,-0.20800782 0.0732422,-0.0732422 0.20654297,-0.0732422 z"  gorn="0.18.2"/>
        <path id="path3355" d="m 30.68045998,11.76062775 h 0.60644531 v 1.69189453 h 0.24316406 v -0.49511719 q 0,-0.0644531 0.0336914,-0.10107422 0.0351563,-0.0366211 0.0922851,-0.0366211 0.0556641,0 0.0908203,0.0380859 0.0351563,0.0380859 0.0351563,0.0996094 v 0.62109375 q 0,0.0556641 -0.0395508,0.0908203 -0.0395508,0.0351563 -0.10107421,0.0351563 h -0.9609375 q -0.0629883,0 -0.10253907,-0.0351563 -0.0380859,-0.0351563 -0.0380859,-0.0908203 0,-0.0556641 0.0395508,-0.0908203 0.0395508,-0.0351563 0.10107422,-0.0351563 h 0.35449218 v -1.43994141 h -0.35449218 q -0.0644531,0 -0.10253907,-0.0336914 -0.0380859,-0.0351563 -0.0380859,-0.0922852 0,-0.0556641 0.0395508,-0.0908203 0.0395508,-0.0351563 0.10107422,-0.0351563 z"  gorn="0.18.3"/>
        <path id="path3357" d="m 33.26151466,11.92176056 -0.12304687,0.61816406 q -0.008789,0.0498047 -0.0424805,0.0791016 -0.0336914,0.0292969 -0.0805664,0.0292969 -0.046875,0 -0.0805664,-0.0292969 -0.0336914,-0.0292969 -0.0424805,-0.0791016 l -0.12011719,-0.61816406 q -0.001465,-0.005859 -0.00293,-0.0131836 0,-0.007324 0,-0.0219727 0,-0.065918 0.0380859,-0.0952148 0.0395508,-0.0307617 0.12304688,-0.0307617 h 0.16845703 q 0.0864258,0 0.12597656,0.0322266 0.0395508,0.0307617 0.0395508,0.0996094 0,0.0102539 -0.001465,0.0175781 0,0.005859 -0.001465,0.0117188 z"  gorn="0.18.4"/>
        <path id="path3359" d="m 35.86307716,12.06092072 q -0.0161133,-0.027832 -0.0307617,-0.0380859 -0.0131836,-0.0102539 -0.0351563,-0.0102539 -0.0205078,0 -0.0395508,0.0131836 -0.019043,0.0131836 -0.0292969,0.0336914 l -0.2709961,0.53320313 q -0.0131836,0.0263672 -0.0219727,0.0644531 -0.007324,0.0380859 -0.007324,0.074707 0,0.0380859 0.007324,0.0761719 0.008789,0.0380859 0.0219727,0.0644531 l 0.27392579,0.53173828 q 0.0146484,0.027832 0.0292969,0.0380859 0.0146484,0.0102539 0.0366211,0.0102539 0.0205078,0 0.0395508,-0.0117188 0.019043,-0.0131836 0.0292969,-0.0366211 L 36.1355381,12.873909 q 0.0131836,-0.0263672 0.0219727,-0.0644531 0.008789,-0.0395508 0.008789,-0.0776367 0,-0.0380859 -0.008789,-0.0776367 -0.008789,-0.0395508 -0.0219727,-0.0629883 z m 0.24023438,-0.0878906 0.26074219,0.51416016 q 0.0249023,0.0483398 0.0395508,0.11279297 0.0146484,0.0644531 0.0146484,0.13183593 0,0.0688477 -0.0146484,0.13330078 -0.0146484,0.0644531 -0.0395508,0.11279297 l -0.26074219,0.51416016 q -0.0615234,0.11572266 -0.13183594,0.1640625 -0.0703125,0.0483398 -0.17431641,0.0483398 -0.10546875,0 -0.17578125,-0.0483398 -0.0703125,-0.0483398 -0.13037109,-0.1640625 L 35.23026466,12.9779129 q -0.0263672,-0.0512695 -0.0410156,-0.11425781 -0.0131836,-0.0644531 -0.0131836,-0.13183594 0,-0.0673828 0.0131836,-0.13183593 0.0146484,-0.0644531 0.0410156,-0.11279297 l 0.26074219,-0.51416016 q 0.0600586,-0.11572266 0.13037109,-0.1640625 0.0703125,-0.0483398 0.17578125,-0.0483398 0.10400391,0 0.17431641,0.0483398 0.0703125,0.0483398 0.13183594,0.1640625 z"  gorn="0.18.5"/>
        <path id="path3361" d="m 37.28251076,11.90125275 v 1.55126953 h 0.84960937 q 0.0629883,0 0.10107422,0.0351563 0.0395508,0.0351563 0.0395508,0.0908203 0,0.0556641 -0.0395508,0.0908203 -0.0395508,0.0351563 -0.10107422,0.0351563 h -1.1015625 v -1.80322265 q 0,-0.0644531 0.0336914,-0.10253907 0.0351563,-0.0380859 0.0922852,-0.0380859 0.0541992,0 0.0893555,0.0395508 0.0366211,0.0395508 0.0366211,0.10107422 z"  gorn="0.18.6"/>
        <path id="path3363" d="m 38.88504982,11.76062775 h 1.1015625 q 0.0629883,0 0.10107422,0.0351563 0.0395508,0.0351563 0.0395508,0.0908203 0,0.0541992 -0.0395508,0.0908203 -0.0395508,0.0351563 -0.10107422,0.0351563 h -0.84960938 v 0.59326172 h 0.35742188 q 0.0615234,0 0.0996094,0.0351563 0.0380859,0.0351563 0.0380859,0.0908203 0,0.0556641 -0.0380859,0.0908203 -0.0380859,0.0351563 -0.0996094,0.0351563 h -0.35742188 v 0.59472656 h 0.84960938 q 0.0629883,0 0.10107422,0.0351563 0.0395508,0.0351563 0.0395508,0.0908203 0,0.0556641 -0.0395508,0.0908203 -0.0395508,0.0351563 -0.10107422,0.0351563 h -1.1015625 z"  gorn="0.18.7"/>
        <path id="path3365" d="m 41.32401466,12.01258087 h -0.0834961 v 1.43994141 h 0.0834961 q 0.0380859,0 0.0703125,-0.0205078 0.0322266,-0.0205078 0.0498047,-0.0571289 l 0.2578125,-0.52294922 q 0.0131836,-0.0263672 0.019043,-0.0556641 0.005859,-0.0292969 0.005859,-0.0644531 0,-0.0336914 -0.005859,-0.0629883 -0.005859,-0.0292969 -0.019043,-0.0556641 l -0.2578125,-0.52001953 q -0.019043,-0.0366211 -0.0512695,-0.0585938 -0.0322266,-0.0219727 -0.0688477,-0.0219727 z m 0,-0.25195312 q 0.11865235,0 0.20361328,0.0571289 0.0849609,0.0571289 0.14794922,0.18017578 l 0.26074219,0.51855469 q 0.0219727,0.0454102 0.0336914,0.0996094 0.0117188,0.0527344 0.0117188,0.11572265 0,0.0629883 -0.0117188,0.1171875 -0.0117188,0.0541992 -0.0336914,0.0996094 l -0.26074219,0.51855469 q -0.0600586,0.12158203 -0.14648437,0.17871093 -0.0849609,0.0585938 -0.20507813,0.0585938 h -0.44384765 q -0.0629883,0 -0.10253907,-0.0351563 -0.0380859,-0.0351563 -0.0380859,-0.0908203 0,-0.0556641 0.0395508,-0.0908203 0.0395508,-0.0351563 0.10107422,-0.0351563 h 0.10839843 v -1.43994141 h -0.10839843 q -0.0629883,0 -0.10253907,-0.0351563 -0.0380859,-0.0351563 -0.0380859,-0.0908203 0,-0.0556641 0.0395508,-0.0908203 0.0395508,-0.0351563 0.10107422,-0.0351563 z"  gorn="0.18.8"/>
        <path id="path3367" d="m 26.07792091,15.51062775 q 0.0629883,0 0.10107422,0.0351563 0.0395508,0.0351563 0.0395508,0.0908203 0,0.0541992 -0.0395508,0.0908203 -0.0395508,0.0351563 -0.10107422,0.0351563 h -0.35449218 v 1.43994141 h 0.35449218 q 0.0629883,0 0.10107422,0.0351563 0.0395508,0.0351563 0.0395508,0.0908203 0,0.0556641 -0.0395508,0.0908203 -0.0395508,0.0351563 -0.10107422,0.0351563 h -0.9609375 q -0.0629883,0 -0.10253906,-0.0351563 -0.0380859,-0.0351563 -0.0380859,-0.0908203 0,-0.0556641 0.0395508,-0.0908203 0.0395508,-0.0351563 0.10107422,-0.0351563 h 0.35449219 v -1.43994141 h -0.35449219 q -0.0629883,0 -0.10253906,-0.0351563 -0.0380859,-0.0351563 -0.0380859,-0.0908203 0,-0.0556641 0.0395508,-0.0908203 0.0395508,-0.0351563 0.10107422,-0.0351563 z"  gorn="0.18.9"/>
        <path id="path3369" d="m 26.9714756,15.51062775 h 0.84960938 q 0.1040039,0 0.17724609,0.0732422 0.074707,0.0732422 0.074707,0.17871094 v 0.59326172 q 0,0.10546875 -0.074707,0.17871094 -0.0732422,0.0732422 -0.17724609,0.0732422 h -0.73828125 v 0.59472656 h 0.84960937 q 0.0629883,0 0.10107422,0.0351563 0.0395508,0.0351563 0.0395508,0.0908203 0,0.0556641 -0.0395508,0.0908203 -0.0395508,0.0351563 -0.10107422,0.0351563 h -1.1015625 v -0.84667968 q 0,-0.10400391 0.0732422,-0.1772461 0.0732422,-0.074707 0.17871094,-0.074707 h 0.73828125 V 15.76258087 H 26.9714756 q -0.0644531,0 -0.10253906,-0.0336914 -0.0380859,-0.0351563 -0.0380859,-0.0922852 0,-0.0556641 0.0395508,-0.0908203 0.0395508,-0.0351563 0.10107422,-0.0351563 z"  gorn="0.18.10"/>
        <path id="path3371" d="m 29.34159279,17.4544754 q -0.1171875,0 -0.20361328,-0.0571289 -0.0849609,-0.0571289 -0.14648438,-0.18017578 l -0.26074219,-0.51855469 q -0.0234375,-0.0454102 -0.0351563,-0.0981445 -0.0102539,-0.0527344 -0.0102539,-0.11425782 0,-0.0644531 0.0102539,-0.12011718 0.0117188,-0.0556641 0.0351563,-0.0996094 l 0.26074219,-0.51855469 q 0.0585938,-0.12158203 0.14501953,-0.17871093 0.0864258,-0.0585938 0.20507813,-0.0585938 h 0.4453125 q 0.0629883,0 0.10107422,0.0351563 0.0395508,0.0351563 0.0395508,0.0908203 0,0.0541992 -0.0395508,0.0908203 -0.0395508,0.0351563 -0.10107422,0.0351563 h -0.4453125 q -0.0366211,0 -0.0688477,0.0205078 -0.0322266,0.0205078 -0.0512695,0.0571289 l -0.2578125,0.52294922 q -0.0117188,0.0263672 -0.0175781,0.0556641 -0.005859,0.0292969 -0.005859,0.0629883 0,0.0351563 0.005859,0.0644531 0.005859,0.0292969 0.0175781,0.0556641 l 0.2578125,0.52001953 q 0.019043,0.0366211 0.0512695,0.0585938 0.0322266,0.0219727 0.0688477,0.0219727 h 0.4453125 q 0.0629883,0 0.10107422,0.0351563 0.0395508,0.0351563 0.0395508,0.0908203 0,0.0556641 -0.0395508,0.0908203 -0.0395508,0.0351563 -0.10107422,0.0351563 z"  gorn="0.18.11"/>
        <path id="path3373" d="m 25.11698341,19.26062775 h 0.60644532 v 1.69189453 h 0.24316406 v -0.49511719 q 0,-0.0644531 0.0336914,-0.10107422 0.0351563,-0.0366211 0.0922852,-0.0366211 0.0556641,0 0.0908203,0.0380859 0.0351563,0.0380859 0.0351563,0.0996094 v 0.62109375 q 0,0.0556641 -0.0395508,0.0908203 -0.0395508,0.0351563 -0.10107422,0.0351563 h -0.9609375 q -0.0629883,0 -0.10253906,-0.0351563 -0.0380859,-0.0351563 -0.0380859,-0.0908203 0,-0.0556641 0.0395508,-0.0908203 0.0395508,-0.0351563 0.10107422,-0.0351563 h 0.35449219 v -1.43994141 h -0.35449219 q -0.0644531,0 -0.10253906,-0.0336914 -0.0380859,-0.0351563 -0.0380859,-0.0922852 0,-0.0556641 0.0395508,-0.0908203 0.0395508,-0.0351563 0.10107422,-0.0351563 z"  gorn="0.18.12"/>
        <path id="path3375" d="m 26.9714756,19.26062775 h 0.84960938 q 0.1040039,0 0.17724609,0.0732422 0.074707,0.0732422 0.074707,0.17871094 v 0.59326172 q 0,0.10546875 -0.074707,0.17871094 -0.0732422,0.0732422 -0.17724609,0.0732422 h -0.73828125 v 0.59472656 h 0.84960937 q 0.0629883,0 0.10107422,0.0351563 0.0395508,0.0351563 0.0395508,0.0908203 0,0.0556641 -0.0395508,0.0908203 -0.0395508,0.0351563 -0.10107422,0.0351563 h -1.1015625 v -0.84667968 q 0,-0.10400391 0.0732422,-0.1772461 0.0732422,-0.074707 0.17871094,-0.074707 h 0.73828125 V 19.51258087 H 26.9714756 q -0.0644531,0 -0.10253906,-0.0336914 -0.0380859,-0.0351563 -0.0380859,-0.0922852 0,-0.0556641 0.0395508,-0.0908203 0.0395508,-0.0351563 0.10107422,-0.0351563 z"  gorn="0.18.13"/>
        <path id="path3377" d="m 28.93729591,20.35779572 v 0.59472656 h 0.73828125 v -0.59472656 z m 0.24902344,-0.84521485 v 0.59326172 h 0.24023438 v -0.59326172 z m -0.12597656,-0.25195312 h 0.4921875 q 0.0541992,0 0.0893555,0.0395508 0.0366211,0.0395508 0.0366211,0.10107422 v 0.70458984 q 0.12158203,0.0117188 0.18457031,0.0834961 0.0644531,0.0703125 0.0644531,0.19628907 v 0.54052734 q 0,0.13476563 -0.0732422,0.20654297 -0.0717773,0.0717773 -0.20654297,0.0717773 H 28.9636631 q -0.13476562,0 -0.20654297,-0.0717773 -0.0717773,-0.0717773 -0.0717773,-0.20654297 v -0.54052734 q 0,-0.12597657 0.0629883,-0.19775391 0.0644531,-0.0717773 0.18603516,-0.0820313 v -0.70458984 q 0,-0.0644531 0.0336914,-0.10253907 0.0351563,-0.0380859 0.0922852,-0.0380859 z"  gorn="0.18.14"/>
        <path id="path3379" d="m 31.72489357,19.84217072 0.36621094,0.44091796 0.35742187,-0.44091796 q 0.0205078,-0.0263672 0.0483399,-0.0395508 0.0292969,-0.0146484 0.0585938,-0.0146484 0.0512695,0 0.0864258,0.0366211 0.0366211,0.0366211 0.0366211,0.0864258 0,0.0249023 -0.008789,0.0483398 -0.008789,0.0219727 -0.0263672,0.0454102 l -0.39111328,0.47314453 0.41748047,0.51123047 q 0.019043,0.0205078 0.027832,0.0424805 0.008789,0.0205078 0.008789,0.046875 0,0.0512695 -0.0366211,0.0864258 -0.0351563,0.0366211 -0.0864258,0.0366211 -0.0292969,0 -0.0585938,-0.0146484 -0.0292969,-0.0146484 -0.0498047,-0.0395508 l -0.38671875,-0.47021485 -0.38964844,0.47021485 q -0.0234375,0.027832 -0.0512695,0.0410156 -0.0263672,0.0131836 -0.0571289,0.0131836 -0.0527344,0 -0.0878906,-0.0351563 -0.0351563,-0.0336914 -0.0351563,-0.0849609 0,-0.0249024 0.008789,-0.0483399 0.0102539,-0.0249023 0.0263672,-0.0439453 l 0.42333984,-0.50830078 -0.39550781,-0.47607422 q -0.019043,-0.0234375 -0.027832,-0.046875 -0.008789,-0.0249023 -0.008789,-0.0556641 0,-0.0424805 0.0366211,-0.0776367 0.0380859,-0.0366211 0.0834961,-0.0366211 0.0322266,0 0.0600586,0.0146484 0.0292969,0.0131836 0.0512695,0.0395508 z"  gorn="0.18.15"/>
        <path id="path3381" d="m 34.38944435,19.26062775 h 0.84960938 q 0.10253906,0 0.17724609,0.074707 0.074707,0.0732422 0.074707,0.17724609 v 0.46728516 q 0,0.065918 -0.0234375,0.1274414 -0.0234375,0.0615234 -0.0703125,0.12158204 0.046875,0.0644531 0.0703125,0.13037109 0.0234375,0.0644531 0.0234375,0.12890625 v 0.46435547 q 0,0.1040039 -0.074707,0.17724609 -0.0732422,0.074707 -0.17724609,0.074707 h -0.84960938 q -0.0629883,0 -0.10253906,-0.0351563 -0.0380859,-0.0351563 -0.0380859,-0.0908203 0,-0.0556641 0.0395508,-0.0908203 0.0395508,-0.0351563 0.10107422,-0.0351563 h 0.84667969 v -0.46875 q 0,-0.0498047 -0.0380859,-0.0878906 -0.0366211,-0.0380859 -0.0878906,-0.0380859 H 34.6355381 q -0.0644531,0 -0.10107422,-0.0336914 -0.0366211,-0.0336914 -0.0366211,-0.0922852 0,-0.0541992 0.0380859,-0.0893555 0.0380859,-0.0366211 0.0996094,-0.0366211 h 0.47460938 q 0.0512695,0 0.0878906,-0.0366211 0.0380859,-0.0380859 0.0380859,-0.0893555 v -0.46728516 h -0.84667969 q -0.0644531,0 -0.10253906,-0.0336914 -0.0380859,-0.0351563 -0.0380859,-0.0922852 0,-0.0556641 0.0395508,-0.0908203 0.0395508,-0.0351563 0.10107422,-0.0351563 z"  gorn="0.18.16"/>
        <path id="path3383" d="m 36.24393654,19.26062775 h 0.84960937 q 0.10400391,0 0.1772461,0.0732422 0.074707,0.0732422 0.074707,0.17871094 v 0.59326172 q 0,0.10546875 -0.074707,0.17871094 -0.0732422,0.0732422 -0.1772461,0.0732422 h -0.73828125 v 0.59472656 h 0.84960938 q 0.0629883,0 0.10107422,0.0351563 0.0395508,0.0351563 0.0395508,0.0908203 0,0.0556641 -0.0395508,0.0908203 -0.0395508,0.0351563 -0.10107422,0.0351563 h -1.1015625 v -0.84667968 q 0,-0.10400391 0.0732422,-0.1772461 0.0732422,-0.074707 0.17871093,-0.074707 h 0.73828125 v -0.59326172 h -0.84960937 q -0.0644531,0 -0.10253906,-0.0336914 -0.0380859,-0.0351563 -0.0380859,-0.0922852 0,-0.0556641 0.0395508,-0.0908203 0.0395508,-0.0351563 0.10107422,-0.0351563 z"  gorn="0.18.17"/>
        <path id="path3385" d="m 39.13700294,19.51258087 v 0.69873047 h 0.609375 q 0.0512695,0 0.0878906,-0.0380859 0.0380859,-0.0380859 0.0380859,-0.0878906 v -0.44677735 q 0,-0.0498047 -0.0380859,-0.0878906 -0.0366211,-0.0380859 -0.0878906,-0.0380859 z m -0.25195312,-0.25195312 h 0.86132812 q 0.15527344,0 0.26806641,0.11132812 0.11279297,0.11132813 0.11279297,0.26660156 v 0.44677735 q 0,0.15673828 -0.11132813,0.26953125 -0.11132812,0.11132812 -0.26953125,0.11132812 h -0.609375 v 0.59765625 q 0,0.0629883 -0.0351563,0.10107422 -0.0351563,0.0395508 -0.0908203,0.0395508 -0.0556641,0 -0.0908203,-0.0395508 -0.0351563,-0.0395508 -0.0351563,-0.10107422 z"  gorn="0.18.18"/>
        <path id="path3387" d="m 41.00321388,19.7879715 h 0.34277344 q 0.0629883,0 0.10107422,0.0351563 0.0395508,0.0351563 0.0395508,0.0908203 v 1.03857422 h 0.23144531 q 0.0615234,0 0.0996094,0.0351563 0.0380859,0.0336914 0.0380859,0.0908203 0,0.0556641 -0.0395508,0.0908203 -0.0380859,0.0351563 -0.0981445,0.0351563 h -0.71484375 q -0.0629883,0 -0.10253906,-0.0351563 -0.0380859,-0.0351563 -0.0380859,-0.0908203 0,-0.0556641 0.0395508,-0.0908203 0.0395508,-0.0351563 0.10107422,-0.0351563 h 0.22851563 v -0.91259766 h -0.22851563 q -0.0644531,0 -0.10253906,-0.0336914 -0.0380859,-0.0351563 -0.0380859,-0.0922852 0,-0.0541992 0.0395508,-0.0893555 0.0395508,-0.0366211 0.10107422,-0.0366211 z m 0.24609375,-0.6328125 h 0.12304688 q 0.0424805,0 0.0776367,0.0380859 0.0366211,0.0380859 0.0366211,0.0878906 v 0.10546875 q 0,0.0541992 -0.0395508,0.0908203 -0.0395508,0.0351563 -0.10107422,0.0351563 h -0.0966797 q -0.0644531,0 -0.10253906,-0.0336914 -0.0380859,-0.0351563 -0.0380859,-0.0922852 v -0.10546875 q 0,-0.0556641 0.0380859,-0.0908203 0.0395508,-0.0351563 0.10253906,-0.0351563 z"  gorn="0.18.19"/>
        <path id="path3389" d="m 42.85184669,19.84217072 0.36621094,0.44091796 0.35742188,-0.44091796 q 0.0205078,-0.0263672 0.0483398,-0.0395508 0.0292969,-0.0146484 0.0585938,-0.0146484 0.0512695,0 0.0864258,0.0366211 0.0366211,0.0366211 0.0366211,0.0864258 0,0.0249023 -0.008789,0.0483398 -0.008789,0.0219727 -0.0263672,0.0454102 l -0.39111329,0.47314453 0.41748047,0.51123047 q 0.019043,0.0205078 0.027832,0.0424805 0.008789,0.0205078 0.008789,0.046875 0,0.0512695 -0.0366211,0.0864258 -0.0351563,0.0366211 -0.0864258,0.0366211 -0.0292969,0 -0.0585938,-0.0146484 -0.0292969,-0.0146484 -0.0498047,-0.0395508 l -0.38671875,-0.47021485 -0.38964843,0.47021485 q -0.0234375,0.027832 -0.0512695,0.0410156 -0.0263672,0.0131836 -0.0571289,0.0131836 -0.0527344,0 -0.0878906,-0.0351563 -0.0351563,-0.0336914 -0.0351563,-0.0849609 0,-0.0249024 0.008789,-0.0483399 0.0102539,-0.0249023 0.0263672,-0.0439453 l 0.42333985,-0.50830078 -0.39550781,-0.47607422 q -0.019043,-0.0234375 -0.027832,-0.046875 -0.008789,-0.0249023 -0.008789,-0.0556641 0,-0.0424805 0.0366211,-0.0776367 0.0380859,-0.0366211 0.0834961,-0.0366211 0.0322266,0 0.0600586,0.0146484 0.0292969,0.0131836 0.0512695,0.0395508 z"  gorn="0.18.20"/>
        <path id="path3391" d="m 44.93192482,20.03699493 q -0.019043,0 -0.0395508,0.008789 -0.019043,0.007324 -0.0395508,0.0219726 l -0.1069336,0.0893555 q -0.0205078,0.0161133 -0.0336914,0.0424805 -0.0117188,0.0249023 -0.0117188,0.0512695 V 20.420784 h 0.73828125 v -0.16992188 q 0,-0.0263672 -0.0131836,-0.0512695 -0.0117188,-0.0263672 -0.0307617,-0.0410156 l -0.10986328,-0.0908203 q -0.019043,-0.0146484 -0.0395508,-0.0219726 -0.019043,-0.008789 -0.0380859,-0.008789 z m -0.00293,-0.24902343 h 0.27832031 q 0.0629883,0 0.12451172,0.0234375 0.0629883,0.0219726 0.11572266,0.0644531 l 0.10839844,0.0864258 q 0.0615234,0.0512695 0.0981445,0.12890625 0.0366211,0.0776367 0.0366211,0.15966797 v 0.30029297 q 0,0.0541992 -0.0395508,0.0908203 -0.0395508,0.0351563 -0.10107422,0.0351563 h -0.84960937 v 0.065918 q 0,0.0263672 0.0117188,0.0512695 0.0131836,0.0249024 0.0336914,0.0410156 l 0.1069336,0.0908203 q 0.0175781,0.0131836 0.0351563,0.0205078 0.019043,0.005859 0.0439453,0.005859 h 0.61816406 q 0.0629883,0 0.10107422,0.0351563 0.0395508,0.0351563 0.0395508,0.0908203 0,0.0556641 -0.0395508,0.0908203 -0.0395508,0.0351563 -0.10107422,0.0351563 h -0.62109375 q -0.0629883,0 -0.12304687,-0.0219726 -0.0600586,-0.0219727 -0.11425782,-0.0644531 l -0.10839843,-0.0908203 q -0.0629883,-0.0512695 -0.0996094,-0.12744141 -0.0351563,-0.0761719 -0.0351563,-0.15673828 v -0.4921875 q 0,-0.0820313 0.0351563,-0.15966797 0.0366211,-0.0776367 0.0996094,-0.12890625 l 0.10839843,-0.0864258 q 0.0541992,-0.0439453 0.11425782,-0.065918 0.0600586,-0.0219726 0.12304687,-0.0219726 z"  gorn="0.18.21"/>
        <path id="path3393" d="m 46.56669044,19.26062775 h 0.34277344 q 0.0629883,0 0.10107422,0.0351563 0.0395508,0.0351563 0.0395508,0.0908203 v 1.56591797 h 0.23144531 q 0.0615234,0 0.0996094,0.0351563 0.0380859,0.0336914 0.0380859,0.0908203 0,0.0556641 -0.0395508,0.0908203 -0.0380859,0.0351563 -0.0981445,0.0351563 h -0.71484375 q -0.0629883,0 -0.10253906,-0.0351563 -0.0380859,-0.0351563 -0.0380859,-0.0908203 0,-0.0556641 0.0395508,-0.0908203 0.0395508,-0.0351563 0.10107421,-0.0351563 h 0.22851563 v -1.43994141 h -0.22851563 q -0.0644531,0 -0.10253906,-0.0336914 -0.0380859,-0.0351563 -0.0380859,-0.0922852 0,-0.0556641 0.0395508,-0.0908203 0.0395508,-0.0351563 0.10107421,-0.0351563 z"  gorn="0.18.22"/>
        <path id="path3395" d="m 48.50907326,19.7879715 h 0.53320312 q 0.12304688,0 0.2241211,0.0761719 0.10253906,0.0761719 0.10253906,0.15527344 0,0.0527344 -0.0380859,0.0893555 -0.0366211,0.0366211 -0.0878906,0.0366211 -0.046875,0 -0.10107422,-0.0527344 -0.0527344,-0.0527344 -0.10253907,-0.0527344 h -0.53027343 q -0.0322266,0 -0.0527344,0.0219727 -0.0205078,0.0205078 -0.0205078,0.0571289 0,0.0161133 0.0131836,0.0336914 0.0131836,0.0175781 0.0322266,0.0263672 l 0.68115234,0.29003906 q 0.10839844,0.0483398 0.17138672,0.14355469 0.0629883,0.09375 0.0629883,0.2109375 0,0.15673828 -0.11279297,0.2680664 -0.11279297,0.11279297 -0.26806641,0.11279297 h -0.49511718 q -0.13183594,0 -0.2475586,-0.0776367 -0.11572265,-0.0761719 -0.11572265,-0.15380859 0,-0.0498047 0.0351563,-0.0878906 0.0366211,-0.0380859 0.0878906,-0.0380859 0.0410156,0 0.11132813,0.0527344 0.0703125,0.0527344 0.12890625,0.0527344 h 0.49511718 q 0.0512695,0 0.0893555,-0.0380859 0.0395508,-0.0380859 0.0395508,-0.0908203 0,-0.0395508 -0.0219727,-0.0717774 -0.0219727,-0.0336914 -0.0600586,-0.0483398 l -0.67675781,-0.29443359 q -0.09375,-0.0395508 -0.14794922,-0.12011719 -0.0541992,-0.0805664 -0.0541992,-0.17578125 0,-0.13476563 0.0952148,-0.22998047 0.0952148,-0.0952148 0.22998047,-0.0952148 z"  gorn="0.18.23"/>
    </g>
    <rect id="rect3450" y="1.913214684" x="0.4655067027" fill-opacity="1" style="font-variation-settings:normal;opacity:1;fill-rule:evenodd;stroke-linecap:butt;stroke-linejoin:miter;stroke-miterlimit:4;stroke-dasharray:none;stroke-dashoffset:0;paint-order:fill markers stroke;stop-color:#000000;stop-opacity:1" stroke-width="0.283465" stroke="#ffffff"  height="28.71354866" fill="none" stroke-opacity="1" gorn="0.19" width="6.829167843"/>
    <rect id="connector0pin_2_" y="4.059247494" x="2.232733011"  height="2.791379929" fill="none" gorn="0.20" width="2.791379929"/>
    <rect id="rect1163" y="4.306277752" x="2.478762865"  height="2.298320055" fill="#8d8c8c" gorn="0.21" width="2.298320055"/>
    <rect id="rect1165" y="4.864357471" x="3.036843061"  height="1.182159901" fill="#8d8664" gorn="0.22" width="1.182159901"/>
    <g transform="translate(-0.1701146845,-0.2958333)" >
        <g >
            <polygon id="polygon1167" points="4.9471974,4.6021109 4.3891177,5.1601906 4.3891177,6.3413606 4.9471974,6.9004307 "  fill="#b8af82" gorn="0.23.0.0"/>
        </g>
    </g>
    <g transform="translate(-0.1701146845,-0.2958333)" >
        <g >
            <polygon id="polygon1169" points="3.2079477,6.3413606 4.3891177,6.3413606 4.9471974,6.9004307 2.6488776,6.9004307 "  fill="#817a5c" gorn="0.24.0.0"/>
        </g>
    </g>
    <g transform="translate(-0.1701146845,-0.2958333)" >
        <g >
            <polygon id="polygon1171" points="3.2079477,5.1601906 3.2079477,6.3413606 2.6488776,6.9004307 2.6488776,4.6021109 "  fill="#5f5c44" gorn="0.25.0.0"/>
        </g>
    </g>
    <g transform="translate(-0.1701146845,-0.2958333)" >
        <g >
            <polygon id="polygon1173" points="4.9471974,4.6021109 4.3891177,5.1601906 3.2079477,5.1601906 2.6488776,4.6021109 "  fill="#9a916c" gorn="0.26.0.0"/>
        </g>
    </g>
    <rect id="connector1pin_2_" y="11.2592268" x="2.232733011"  height="2.791379929" fill="none" gorn="0.27" width="2.791379929"/>
    <rect id="rect1179" y="11.50625706" x="2.478762865"  height="2.298319817" fill="#8d8c8c" gorn="0.28" width="2.298320055"/>
    <rect id="rect1181" y="12.06434727" x="3.036843061"  height="1.182160378" fill="#8d8664" gorn="0.29" width="1.182159901"/>
    <g transform="translate(-0.1701146845,-0.2958333)" >
        <g >
            <polygon id="polygon1183" points="4.9471974,11.8020906 4.3891177,12.3601809 4.3891177,13.5413809 4.9471974,14.1003809 "  fill="#b8af82" gorn="0.30.0.0"/>
        </g>
    </g>
    <g transform="translate(-0.1701146845,-0.2958333)" >
        <g >
            <polygon id="polygon1185" points="3.2079477,13.5413809 4.3891177,13.5413809 4.9471974,14.1003809 2.6488776,14.1003809 "  fill="#817a5c" gorn="0.31.0.0"/>
        </g>
    </g>
    <g transform="translate(-0.1701146845,-0.2958333)" >
        <g >
            <polygon id="polygon1187" points="3.2079477,12.3601809 3.2079477,13.5413809 2.6488776,14.1003809 2.6488776,11.8020906 "  fill="#5f5c44" gorn="0.32.0.0"/>
        </g>
    </g>
    <g transform="translate(-0.1701146845,-0.2958333)" >
        <g >
            <polygon id="polygon1189" points="4.9471974,11.8020906 4.3891177,12.3601809 3.2079477,12.3601809 2.6488776,11.8020906 "  fill="#9a916c" gorn="0.33.0.0"/>
        </g>
    </g>
    <rect id="connector2pin_2_" y="18.45924759" x="2.232733011"  height="2.791379929" fill="none" gorn="0.34" width="2.791379929"/>
    <rect id="rect1195" y="18.70624733" x="2.478762865"  height="2.29832077" fill="#8d8c8c" gorn="0.35" width="2.298320055"/>
    <rect id="rect1197" y="19.26434898" x="3.036843061"  height="1.182159424" fill="#8d8664" gorn="0.36" width="1.182159901"/>
    <g transform="translate(-0.1701146845,-0.2958333)" >
        <g >
            <polygon id="polygon1199" points="4.9471974,19.0020809 4.3891177,19.5601826 4.3891177,20.7413807 4.9471974,21.3003807 "  fill="#b8af82" gorn="0.37.0.0"/>
        </g>
    </g>
    <g transform="translate(-0.1701146845,-0.2958333)" >
        <g >
            <polygon id="polygon1201" points="3.2079477,20.7413807 4.3891177,20.7413807 4.9471974,21.3003807 2.6488776,21.3003807 "  fill="#817a5c" gorn="0.38.0.0"/>
        </g>
    </g>
    <g transform="translate(-0.1701146845,-0.2958333)" >
        <g >
            <polygon id="polygon1203" points="3.2079477,19.5601826 3.2079477,20.7413807 2.6488776,21.3003807 2.6488776,19.0020809 "  fill="#5f5c44" gorn="0.39.0.0"/>
        </g>
    </g>
    <g transform="translate(-0.1701146845,-0.2958333)" >
        <g >
            <polygon id="polygon1205" points="4.9471974,19.0020809 4.3891177,19.5601826 3.2079477,19.5601826 2.6488776,19.0020809 "  fill="#9a916c" gorn="0.40.0.0"/>
        </g>
    </g>
    <rect id="connector3pin_2_" y="25.65924835" x="2.232733011"  height="2.791379929" fill="none" gorn="0.41" width="2.791379929"/>
    <rect id="rect1211" y="25.90624809" x="2.478762865"  height="2.29832077" fill="#8d8c8c" gorn="0.42" width="2.298320055"/>
    <rect id="rect1213" y="26.46434784" x="3.036843061"  height="1.182159424" fill="#8d8664" gorn="0.43" width="1.182159901"/>
    <g transform="translate(-0.1701146845,-0.2958333)" >
        <g >
            <polygon id="polygon1215" points="4.9471974,26.2020817 4.3891177,26.7601814 4.3891177,27.9413815 4.9471974,28.5003815 "  fill="#b8af82" gorn="0.44.0.0"/>
        </g>
    </g>
    <g transform="translate(-0.1701146845,-0.2958333)" >
        <g >
            <polygon id="polygon1217" points="3.2079477,27.9413815 4.3891177,27.9413815 4.9471974,28.5003815 2.6488776,28.5003815 "  fill="#817a5c" gorn="0.45.0.0"/>
        </g>
    </g>
    <g transform="translate(-0.1701146845,-0.2958333)" >
        <g >
            <polygon id="polygon1219" points="3.2079477,26.7601814 3.2079477,27.9413815 2.6488776,28.5003815 2.6488776,26.2020817 "  fill="#5f5c44" gorn="0.46.0.0"/>
        </g>
    </g>
    <g transform="translate(-0.1701146845,-0.2958333)" >
        <g >
            <polygon id="polygon1221" points="4.9471974,26.2020817 4.3891177,26.7601814 3.2079477,26.7601814 2.6488776,26.2020817 "  fill="#9a916c" gorn="0.47.0.0"/>
        </g>
    </g>
    <path id="connector3pin" d="m 3.649904816,3 c -1.3699951,0 -2.4700317,1.0999753 -2.4700317,2.4600217 0,1.3699951 1.1000366,2.4699712 2.4700317,2.4699712 1.3599856,0 2.4599612,-1.0999761 2.4599612,-2.4699712 C 6.109866016,4.0999754 5.009890416,3 3.649904816,3 Z m 1.1300051,3.6099852 h -2.3000491 V 4.3099974 h 2.3000491 z"  fill="#afb0c5" gorn="0.48"/>
    <path id="connector2pin" d="m 3.659914516,10.1900027 c -1.3600464,0 -2.460022,1.0999756 -2.460022,2.4599609 0,1.3700562 1.0999756,2.4700317 2.460022,2.4700317 1.3599856,0 2.4699709,-1.0999756 2.4699709,-2.4700317 1e-7,-1.3599853 -1.1099853,-2.4599609 -2.4699709,-2.4599609 z m 1.1199954,3.6199951 h -2.3000491 V 11.51001 h 2.3000491 z"  fill="#afb0c5" gorn="0.49"/>
    <path id="connector1pin" d="m 3.629885316,17.4099734 c -1.3599854,0 -2.4699707,1.1100464 -2.4699707,2.4700317 0,1.3599853 1.1099853,2.4699708 2.4699707,2.4699708 1.3599854,0 2.4699709,-1.1099854 2.4699709,-2.4699707 0,-1.3599853 -1.1099854,-2.4700318 -2.4699709,-2.4700318 z m 1.1500246,3.6000367 h -2.3000491 v -2.2999878 h 2.3000491 z"  fill="#afb0c5" gorn="0.50"/>
    <path id="path3087" d="m 3.627922912,24.5854263 c -1.3599854,0 -2.4699707,1.1100464 -2.4699707,2.4700317 0,1.3599853 1.1099853,2.4699708 2.4699707,2.4699708 1.3599854,0 2.4699709,-1.1099854 2.4699709,-2.4699707 0,-1.3599853 -1.1099854,-2.4700318 -2.4699709,-2.4700318 z m 1.1500246,3.6000367 h -2.3000491 v -2.2999878 h 2.3000491 z"  fill="#afb0c5" gorn="0.51"/>
</svg>
