<?xml version='1.0' encoding='UTF-8' standalone='no'?>
<svg xmlns="http://www.w3.org/2000/svg" height="0.33000001in" viewBox="0 0 80.002038 33"  id="svg2" gorn="0" version="1.2" xml:space="preserve" width="0.8000204in" xmlns:xml="http://www.w3.org/XML/1998/namespace">
    <desc >
        <referenceFile >CD4051.svg</referenceFile>
    </desc>
    <metadata  id="metadata3462">
        <rdf:RDF xmlns:rdf="http://www.w3.org/1999/02/22-rdf-syntax-ns#">
            <cc:Work xmlns:cc="http://creativecommons.org/ns#" rdf:about="" xmlns:rdf="http://www.w3.org/1999/02/22-rdf-syntax-ns#">
                <dc:format xmlns:dc="http://purl.org/dc/elements/1.1/">image/svg+xml</dc:format>
                <dc:type rdf:resource="http://purl.org/dc/dcmitype/StillImage" xmlns:dc="http://purl.org/dc/elements/1.1/" xmlns:rdf="http://www.w3.org/1999/02/22-rdf-syntax-ns#"/>
                <dc:title xmlns:dc="http://purl.org/dc/elements/1.1/"/>
            </cc:Work>
        </rdf:RDF>
    </metadata>
    <defs  id="defs3460"/>
    <rect height="27" x="0"  y="3" id="middle" gorn="0.3" style="fill:#303030" width="80.002045"/>
    <rect height="2.46" x="0"  y="3" id="top" gorn="0.4" style="fill:#3d3d3d" width="80.021423"/>
    <rect height="2.46" x="0"  y="27.540001" id="bottom" gorn="0.5" style="fill:#000000" width="79.924522"/>
    <g  transform="translate(39.999997,0)">
        <g >
            <polygon  id="right" gorn="0.6.0.0" style="fill:#141414" points="39.25,5.46 39.25,27.54 40,30 40,3 "/>
        </g>
    </g>
    <polygon  id="left" gorn="0.7" style="fill:#1f1f1f" points="0.75,5.46 0.75,27.54 0,30 0,3 "/>
    <polygon  id="left-upper-rect" gorn="0.8" style="fill:#1c1c1c" points="5,11.5 0.75,11.46 0.56,13.58 0.56,16.5 5,16.5 "/>
    <polygon  id="left-lower-rect" gorn="0.9" style="fill:#383838" points="0.75,21.55 5,21.55 5,16.5 0.56,16.5 0.56,19.42 "/>
    <path  id="slot" gorn="0.10" style="fill:#262626" d="m 0.56,13.58 0,5.83 c 1.47,-0.17 2.62,-1.4 2.62,-2.92 0,-1.52 -1.14,-2.74 -2.62,-2.91 z"/>
    <path  id="cover" gorn="0.11" style="fill:#303030" d="m 0.75,5.46 0,5.99 c 2.38,0.45 4.19,2.53 4.19,5.04 0,2.51 -1.8,4.6 -4.19,5.05 l 0,0.01 5,0 0,-16.09 -5,0 z"/>
    <circle  id="circle3423" gorn="0.12" style="fill:#212121" cx="6.5" cy="23.469999" r="2.0599999"/>
    <rect height="4.3400002" x="3.5"  y="28.66" id="connector0pin" gorn="0.13" style="fill:#8c8c8c" width="3"/>
    <rect height="3" x="3.5"  y="30" id="connector0terminal" gorn="0.14" style="fill:#8c8c8c" width="3"/>
    <polygon  id="polygon3428" gorn="0.15" style="fill:#8c8c8c" points="3.5,28.66 3.5,30.66 6.5,30.66 8.5,29.74 8.5,28.66 "/>
    <rect height="4.3400002" x="3.5"  y="0" id="connector7pin" gorn="0.16" style="fill:#8c8c8c" width="3"/>
    <rect height="3" x="3.5"  y="0" id="connector7terminal" gorn="0.17" style="fill:#8c8c8c" width="3"/>
    <polygon  id="polygon3432" gorn="0.18" style="fill:#8c8c8c" points="8.5,4.34 8.5,3.26 6.5,2.34 3.5,2.34 3.5,4.34 "/>
    <rect height="4.3400002" x="73.499985"  y="28.66" id="connector3pin" gorn="0.19" style="fill:#8c8c8c" width="3"/>
    <rect height="3" x="73.499985"  y="30" id="connector3terminal" gorn="0.20" style="fill:#8c8c8c" width="3"/>
    <g  transform="translate(39.999997,0)">
        <g >
            <polygon  id="polygon3436" gorn="0.21.0.0" style="fill:#8c8c8c" points="36.5,30.66 36.5,28.66 31.5,28.66 31.5,29.74 33.5,30.66 "/>
        </g>
    </g>
    <g  transform="translate(40.129098,0)">
        <g >
            <g  id="g4173" gorn="0.22.0.0">
                <rect x="33.5" height="4.3400002"  y="0" id="connector4pin" gorn="0.22.0.0.0" style="fill:#8c8c8c" width="3"/>
                <rect x="33.5" height="3"  y="0" id="connector4terminal" gorn="0.22.0.0.1" style="fill:#8c8c8c" width="3"/>
                <polygon  id="polygon3440" gorn="0.22.0.0.2" style="fill:#8c8c8c" points="36.5,4.34 36.5,2.34 33.5,2.34 31.5,3.26 31.5,4.34 "/>
            </g>
        </g>
    </g>
    <rect height="4.3400002" x="13.5"  y="28.66" id="connector1pin" gorn="0.23" style="fill:#8c8c8c" width="3"/>
    <rect height="3" x="13.5"  y="30" id="connector1terminal" gorn="0.24" style="fill:#8c8c8c" width="3"/>
    <polygon  id="polygon3444" gorn="0.25" style="fill:#8c8c8c" points="18.5,28.66 11.5,28.66 11.5,29.74 13.5,30.66 16.5,30.66 18.5,29.74 "/>
    <rect height="4.3400002" x="13.5"  y="0" id="connector6pin" gorn="0.26" style="fill:#8c8c8c" width="3"/>
    <rect height="3" x="13.5"  y="0" id="connector6terminal" gorn="0.27" style="fill:#8c8c8c" width="3"/>
    <polygon  id="polygon3448" gorn="0.28" style="fill:#8c8c8c" points="11.5,4.34 18.5,4.34 18.5,3.26 16.5,2.34 13.5,2.34 11.5,3.26 "/>
    <rect height="4.3400002" x="23.5"  y="28.66" id="connector2pin" gorn="0.29" style="fill:#8c8c8c" width="3"/>
    <rect height="3" x="23.5"  y="30" id="connector2terminal" gorn="0.30" style="fill:#8c8c8c" width="3"/>
    <polygon  id="polygon3452" gorn="0.31" style="fill:#8c8c8c" points="28.5,28.66 21.5,28.66 21.5,29.74 23.5,30.66 26.5,30.66 28.5,29.74 "/>
    <rect height="4.3400002" x="23.5"  y="0" id="connector5pin" gorn="0.32" style="fill:#8c8c8c" width="3"/>
    <rect height="3" x="23.5"  y="0" id="connector5terminal" gorn="0.33" style="fill:#8c8c8c" width="3"/>
    <polygon  id="polygon3456" gorn="0.34" style="fill:#8c8c8c" points="21.5,4.34 28.5,4.34 28.5,3.26 26.5,2.34 23.5,2.34 21.5,3.26 "/>
    <g  transform="translate(2.1926916,0)">
        <g >
            <g  id="label-1" gorn="0.35.0.0" font-size="8.88889" style="line-height:125%;font-family:OCRA;text-align:start;writing-mode:lr-tb;text-anchor:start;" fill="#e6e6e6" stroke="none">
                <text x="5.2038975"  y="14.680809" id="tspan2962" gorn="0.35.0.0.0">CD4051</text>
            </g>
        </g>
    </g>
    <rect x="33.499996" height="4.3400002"  y="28.66" id="rect4178" gorn="0.36" style="fill:#8c8c8c" width="3"/>
    <rect x="33.499996" height="3"  y="30" id="rect4180" gorn="0.37" style="fill:#8c8c8c" width="3"/>
    <g  transform="translate(19.999999,0)">
        <g >
            <polygon  id="polygon4182" gorn="0.38.0.0" style="fill:#8c8c8c" points="18.5,29.74 18.5,28.66 11.5,28.66 11.5,29.74 13.5,30.66 16.5,30.66 "/>
        </g>
    </g>
    <rect x="43.499992" height="4.3400002"  y="28.66" id="rect4184" gorn="0.39" style="fill:#8c8c8c" width="3"/>
    <rect x="43.499992" height="3"  y="30" id="rect4186" gorn="0.40" style="fill:#8c8c8c" width="3"/>
    <g  transform="translate(19.999999,0)">
        <g >
            <polygon  id="polygon4188" gorn="0.41.0.0" style="fill:#8c8c8c" points="28.5,29.74 28.5,28.66 21.5,28.66 21.5,29.74 23.5,30.66 26.5,30.66 "/>
        </g>
    </g>
    <rect height="4.3400002" x="53.499989"  y="28.66" id="rect4190" gorn="0.42" style="fill:#8c8c8c" width="3"/>
    <rect height="3" x="53.499989"  y="30" id="rect4192" gorn="0.43" style="fill:#8c8c8c" width="3"/>
    <g  transform="translate(39.999997,0)">
        <g >
            <polygon  id="polygon4194" gorn="0.44.0.0" style="fill:#8c8c8c" points="11.5,29.74 13.5,30.66 16.5,30.66 18.5,29.74 18.5,28.66 11.5,28.66 "/>
        </g>
    </g>
    <rect height="4.3400002" x="63.499985"  y="28.66" id="rect4196" gorn="0.45" style="fill:#8c8c8c" width="3"/>
    <rect height="3" x="63.499985"  y="30" id="rect4198" gorn="0.46" style="fill:#8c8c8c" width="3"/>
    <g  transform="translate(39.999997,0)">
        <g >
            <polygon  id="polygon4200" gorn="0.47.0.0" style="fill:#8c8c8c" points="21.5,29.74 23.5,30.66 26.5,30.66 28.5,29.74 28.5,28.66 21.5,28.66 "/>
        </g>
    </g>
    <rect x="33.499996" height="4.3400002"  y="0" id="rect4251" gorn="0.48" style="fill:#8c8c8c" width="3"/>
    <rect x="33.499996" height="3"  y="0" id="rect4253" gorn="0.49" style="fill:#8c8c8c" width="3"/>
    <g  transform="translate(19.999999,0)">
        <g >
            <polygon  id="polygon4255" gorn="0.50.0.0" style="fill:#8c8c8c" points="16.5,2.34 13.5,2.34 11.5,3.26 11.5,4.34 18.5,4.34 18.5,3.26 "/>
        </g>
    </g>
    <rect x="43.499992" height="4.3400002"  y="0" id="rect4257" gorn="0.51" style="fill:#8c8c8c" width="3"/>
    <rect x="43.499992" height="3"  y="0" id="rect4259" gorn="0.52" style="fill:#8c8c8c" width="3"/>
    <g  transform="translate(19.999999,0)">
        <g >
            <polygon  id="polygon4261" gorn="0.53.0.0" style="fill:#8c8c8c" points="26.5,2.34 23.5,2.34 21.5,3.26 21.5,4.34 28.5,4.34 28.5,3.26 "/>
        </g>
    </g>
    <rect height="4.3400002" x="53.499989"  y="0" id="rect4263" gorn="0.54" style="fill:#8c8c8c" width="3"/>
    <rect height="3" x="53.499989"  y="0" id="rect4265" gorn="0.55" style="fill:#8c8c8c" width="3"/>
    <g  transform="translate(39.999997,0)">
        <g >
            <polygon  id="polygon4267" gorn="0.56.0.0" style="fill:#8c8c8c" points="18.5,3.26 16.5,2.34 13.5,2.34 11.5,3.26 11.5,4.34 18.5,4.34 "/>
        </g>
    </g>
    <rect height="4.3400002" x="63.499985"  y="0" id="rect4269" gorn="0.57" style="fill:#8c8c8c" width="3"/>
    <rect height="3" x="63.499985"  y="0" id="rect4271" gorn="0.58" style="fill:#8c8c8c" width="3"/>
    <g  transform="translate(39.999997,0)">
        <g >
            <polygon  id="polygon4273" gorn="0.59.0.0" style="fill:#8c8c8c" points="28.5,3.26 26.5,2.34 23.5,2.34 21.5,3.26 21.5,4.34 28.5,4.34 "/>
        </g>
    </g>
</svg>
